<?xml version="1.0" ?><svg style="enable-background:new 0 0 512 512;" version="1.1" viewBox="0 0 512 512" xml:space="preserve" xmlns="http://www.w3.org/2000/svg" xmlns:xlink="http://www.w3.org/1999/xlink"><style type="text/css">
	.st0{fill:#787878;}
	.st1{fill:none;stroke:#787878;stroke-width:32;stroke-linecap:round;stroke-linejoin:round;stroke-miterlimit:10;}
</style><g id="Layer_1"/><g id="Layer_2"><g><g><path class="st0" d="M448.17,130.47c-13.09-12.31-30.12-19.09-47.94-19.09h-7.19v-18.1c0-13.3-5.18-25.8-14.58-35.2     s-21.9-14.58-35.2-14.58c-27.45,0-49.78,22.33-49.78,49.78v18.1h-74.96v-18.1c0-13.3-5.18-25.8-14.58-35.2     c-9.4-9.4-21.9-14.58-35.2-14.58c-27.45,0-49.78,22.33-49.78,49.78v18.1h-7.19c-17.82,0-34.85,6.78-47.94,19.09     C50.91,142.61,43.5,158.84,43.5,175v43.15v29.76v147.67c0,20.09,6.99,38.57,19.69,52.03c12.71,13.47,29.96,20.89,48.58,20.89     h288.46c18.62,0,35.87-7.42,48.58-20.89c12.69-13.47,19.69-31.94,19.69-52.03V247.91v-29.76V175     C468.5,158.84,461.09,142.61,448.17,130.47z M323.24,93.28c0-11.04,8.98-20.02,20.02-20.02c5.35,0,10.38,2.08,14.16,5.86     c3.78,3.78,5.86,8.81,5.86,14.16v32.97c0,0,0,0.01,0,0.01v17.09c0,11.04-8.98,20.02-20.02,20.02s-20.02-8.98-20.02-20.02v-17.09     V93.28z M168.74,73.26c5.35,0,10.38,2.08,14.16,5.86c3.78,3.78,5.86,8.81,5.86,14.16v32.98v17.09c0,11.04-8.98,20.02-20.02,20.02     s-20.02-8.98-20.02-20.02v-17.09c0,0,0-0.01,0-0.01V93.28C148.72,82.24,157.7,73.26,168.74,73.26z M438.74,395.58     c0,25.01-16.2,43.16-38.51,43.16H111.77c-22.31,0-38.51-18.15-38.51-43.16V247.91h365.48V395.58z"/></g><g><path class="st0" d="M210.22,298.8h72.46l-49.35,104.62c-3.51,7.43-0.32,16.3,7.11,19.81c2.05,0.97,4.21,1.43,6.34,1.43     c5.58,0,10.93-3.15,13.47-8.54l54.27-115.04c3.3-6.99,2.8-15.07-1.35-21.6c-4.14-6.53-11.23-10.43-18.96-10.43h-83.98     c-8.22,0-14.88,6.66-14.88,14.88S202,298.8,210.22,298.8z"/></g></g></g></svg>