<?xml version="1.0" encoding="iso-8859-1"?>
<!-- Generator: Adobe Illustrator 19.0.0, SVG Export Plug-In . SVG Version: 6.00 Build 0)  -->
<svg version="1.1" id="Capa_1" xmlns="http://www.w3.org/2000/svg" xmlns:xlink="http://www.w3.org/1999/xlink" x="0px" y="0px"
	 viewBox="0 0 512 512" style="enable-background:new 0 0 512 512;" xml:space="preserve">
<path style="fill:#0A4EAF;" d="M387,171h-50V81h50V171z"/>
<path style="fill:#A8AFF1;" d="M467,111H257V21h210V111z"/>
<rect y="141" style="fill:#E1E4FB;" width="512" height="350"/>
<g>
	<rect x="257" y="141" style="fill:#C5C9F7;" width="255" height="350"/>
	<rect y="141" style="fill:#C5C9F7;" width="512" height="270"/>
</g>
<rect x="257" y="141" style="fill:#A8AFF1;" width="255" height="270"/>
<path style="fill:#EDEDF9;" d="M202.5,321h-150V86.729l43.921,21.961l31.075-20.718l31.08,20.719L202.5,86.73V321z"/>
<g>
	<rect x="294.5" y="201" style="fill:#C5C9F7;" width="180" height="30"/>
	<rect x="434.5" y="261" style="fill:#C5C9F7;" width="40" height="30"/>
	<rect x="434.5" y="321" style="fill:#C5C9F7;" width="40" height="30"/>
	<rect x="364.5" y="261" style="fill:#C5C9F7;" width="40" height="30"/>
	<rect x="364.5" y="321" style="fill:#C5C9F7;" width="40" height="30"/>
	<rect x="294.5" y="261" style="fill:#C5C9F7;" width="40" height="30"/>
	<rect x="294.5" y="321" style="fill:#C5C9F7;" width="40" height="30"/>
</g>
<rect x="287" y="51" style="fill:#0A4EAF;" width="150" height="30"/>
<g>
</g>
<g>
</g>
<g>
</g>
<g>
</g>
<g>
</g>
<g>
</g>
<g>
</g>
<g>
</g>
<g>
</g>
<g>
</g>
<g>
</g>
<g>
</g>
<g>
</g>
<g>
</g>
<g>
</g>
</svg>
