<svg height="512" viewBox="0 0 64 64" width="512" xmlns="http://www.w3.org/2000/svg"><path d="m3 3h58v58h-58z" fill="#cfdfe8"/><path d="m13 19h38v26h-38z" fill="#87cee9"/><path d="m3 21h6v4h-6z" fill="#7d8d9c"/><path d="m3 29h6v4h-6z" fill="#7d8d9c"/><path d="m3 37h6v4h-6z" fill="#7d8d9c"/><path d="m9 22h4v2h-4z" fill="#394d5c"/><path d="m9 30h4v2h-4z" fill="#394d5c"/><path d="m9 38h4v2h-4z" fill="#394d5c"/><path d="m55 21h6v4h-6z" fill="#7d8d9c" transform="matrix(-1 0 0 -1 116 46)"/><path d="m55 29h6v4h-6z" fill="#7d8d9c" transform="matrix(-1 0 0 -1 116 62)"/><path d="m55 37h6v4h-6z" fill="#7d8d9c" transform="matrix(-1 0 0 -1 116 78)"/><g fill="#394d5c"><path d="m51 22h4v2h-4z"/><path d="m51 30h4v2h-4z"/><path d="m51 38h4v2h-4z"/><path d="m7 7h24v4h-24z"/></g><path d="m3 14h32v2h-32z" fill="#f4f4e6"/><path d="m46 14h15v2h-15z" fill="#f4f4e6"/><path d="m40 14h4v2h-4z" fill="#f4f4e6"/><path d="m7 49h50v12h-50z" fill="#7d8d9c"/><path d="m58 12h-2v-4h-5v-2h7z" fill="#f4f4e6"/><path d="m47 6h2v2h-2z" fill="#f4f4e6"/><path d="m15 53h34v4h-34z" fill="#394d5c"/><path d="m24 49h16v4h-16z" fill="#5c6b77"/><path d="m24 57h16v4h-16z" fill="#5c6b77"/><path d="m10 52h2v2h-2z" fill="#f9bb4b"/><path d="m10 56h2v2h-2z" fill="#f9bb4b"/><path d="m52 52h2v2h-2z" fill="#f9bb4b"/><path d="m52 56h2v2h-2z" fill="#f9bb4b"/><circle cx="32" cy="32" fill="#fcf05a" r="11"/><path d="m30.707 28.707-1.414-1.414-1.293 1.293-1.293-1.293-1.414 1.414 1.293 1.293-1.293 1.293 1.414 1.414 1.293-1.293 1.293 1.293 1.414-1.414-1.293-1.293z" fill="#394d5c"/><path d="m38.707 28.707-1.414-1.414-1.293 1.293-1.293-1.293-1.414 1.414 1.293 1.293-1.293 1.293 1.414 1.414 1.293-1.293 1.293 1.293 1.414-1.414-1.293-1.293z" fill="#394d5c"/><path d="m36.052 38.316c-.031-.086-.865-2.316-4.052-2.316-3.242 0-4.044 2.293-4.052 2.316l-1.9-.632c.052-.151 1.285-3.684 5.952-3.684s5.9 3.533 5.948 3.684z" fill="#394d5c"/></svg>