<?xml version="1.0" encoding="UTF-8"?>
<svg xmlns="http://www.w3.org/2000/svg" xmlns:xlink="http://www.w3.org/1999/xlink" width="500px" height="500px" viewBox="0 0 500 500" version="1.1">
<g id="surface517588">
<path style=" stroke:none;fill-rule:nonzero;fill:rgb(77.254902%,89.411765%,98.039216%);fill-opacity:1;" d="M 39.0625 117.1875 L 460.9375 117.1875 L 460.9375 429.6875 L 39.0625 429.6875 Z M 39.0625 117.1875 "/>
<path style=" stroke:none;fill-rule:nonzero;fill:rgb(89.019608%,94.901961%,100%);fill-opacity:1;" d="M 297.710938 429.6875 L 460.9375 266.460938 L 460.9375 125 L 439.171875 125 L 134.484375 429.6875 Z M 41.296875 429.6875 L 106.585938 429.6875 L 411.273438 125 L 345.984375 125 Z M 39.0625 404.015625 L 318.078125 125 L 287.109375 125 L 39.0625 373.046875 Z M 39.0625 404.015625 "/>
<path style=" stroke:none;fill-rule:nonzero;fill:rgb(67.45098%,71.764706%,81.568627%);fill-opacity:1;" d="M 445.3125 148.4375 L 54.6875 148.4375 C 46.054688 148.4375 39.0625 141.445312 39.0625 132.8125 L 39.0625 85.9375 C 39.0625 77.304688 46.054688 70.3125 54.6875 70.3125 L 445.3125 70.3125 C 453.945312 70.3125 460.9375 77.304688 460.9375 85.9375 L 460.9375 132.8125 C 460.9375 141.445312 453.945312 148.4375 445.3125 148.4375 Z M 445.3125 148.4375 "/>
<path style=" stroke:none;fill-rule:nonzero;fill:rgb(92.941176%,47.058824%,60%);fill-opacity:1;" d="M 250 195.3125 C 198.222656 195.3125 156.25 237.285156 156.25 289.0625 C 156.25 340.839844 198.222656 382.8125 250 382.8125 C 301.777344 382.8125 343.75 340.839844 343.75 289.0625 C 343.75 237.285156 301.777344 195.3125 250 195.3125 Z M 250 195.3125 "/>
<path style=" stroke:none;fill-rule:nonzero;fill:rgb(55.294118%,42.352941%,62.352941%);fill-opacity:1;" d="M 429.6875 140.625 L 398.4375 140.625 C 394.125 140.625 390.625 144.117188 390.625 148.4375 C 390.625 152.757812 394.125 156.25 398.4375 156.25 L 429.6875 156.25 C 434 156.25 437.5 152.757812 437.5 148.4375 C 437.5 144.117188 434 140.625 429.6875 140.625 Z M 429.6875 140.625 "/>
<path style=" stroke:none;fill-rule:nonzero;fill:rgb(55.294118%,42.352941%,62.352941%);fill-opacity:1;" d="M 445.3125 62.5 L 54.6875 62.5 C 41.765625 62.5 31.25 73.015625 31.25 85.9375 L 31.25 414.0625 C 31.25 426.984375 41.765625 437.5 54.6875 437.5 L 445.3125 437.5 C 458.234375 437.5 468.75 426.984375 468.75 414.0625 L 468.75 85.9375 C 468.75 73.015625 458.234375 62.5 445.3125 62.5 Z M 453.125 414.0625 C 453.125 418.375 449.617188 421.875 445.3125 421.875 L 54.6875 421.875 C 50.382812 421.875 46.875 418.375 46.875 414.0625 L 46.875 156.25 L 367.1875 156.25 C 371.5 156.25 375 152.757812 375 148.4375 C 375 144.117188 371.5 140.625 367.1875 140.625 L 46.875 140.625 L 46.875 85.9375 C 46.875 81.625 50.382812 78.125 54.6875 78.125 L 445.3125 78.125 C 449.617188 78.125 453.125 81.625 453.125 85.9375 Z M 453.125 414.0625 "/>
<path style=" stroke:none;fill-rule:nonzero;fill:rgb(55.294118%,42.352941%,62.352941%);fill-opacity:1;" d="M 156.25 93.75 C 151.9375 93.75 148.4375 97.242188 148.4375 101.5625 L 148.4375 117.1875 C 148.4375 121.507812 151.9375 125 156.25 125 C 160.5625 125 164.0625 121.507812 164.0625 117.1875 L 164.0625 101.5625 C 164.0625 97.242188 160.5625 93.75 156.25 93.75 Z M 117.1875 93.75 C 112.875 93.75 109.375 97.242188 109.375 101.5625 L 109.375 117.1875 C 109.375 121.507812 112.875 125 117.1875 125 C 121.5 125 125 121.507812 125 117.1875 L 125 101.5625 C 125 97.242188 121.5 93.75 117.1875 93.75 Z M 78.125 93.75 C 73.8125 93.75 70.3125 97.242188 70.3125 101.5625 L 70.3125 117.1875 C 70.3125 121.507812 73.8125 125 78.125 125 C 82.4375 125 85.9375 121.507812 85.9375 117.1875 L 85.9375 101.5625 C 85.9375 97.242188 82.4375 93.75 78.125 93.75 Z M 273.4375 93.75 C 269.125 93.75 265.625 97.242188 265.625 101.5625 L 265.625 117.1875 C 265.625 121.507812 269.125 125 273.4375 125 C 277.75 125 281.25 121.507812 281.25 117.1875 L 281.25 101.5625 C 281.25 97.242188 277.75 93.75 273.4375 93.75 Z M 312.5 93.75 C 308.1875 93.75 304.6875 97.242188 304.6875 101.5625 L 304.6875 117.1875 C 304.6875 121.507812 308.1875 125 312.5 125 C 316.8125 125 320.3125 121.507812 320.3125 117.1875 L 320.3125 101.5625 C 320.3125 97.242188 316.8125 93.75 312.5 93.75 Z M 351.5625 93.75 C 347.25 93.75 343.75 97.242188 343.75 101.5625 L 343.75 117.1875 C 343.75 121.507812 347.25 125 351.5625 125 C 355.875 125 359.375 121.507812 359.375 117.1875 L 359.375 101.5625 C 359.375 97.242188 355.875 93.75 351.5625 93.75 Z M 398.4375 117.1875 L 398.4375 101.5625 C 398.4375 97.242188 394.9375 93.75 390.625 93.75 C 386.3125 93.75 382.8125 97.242188 382.8125 101.5625 L 382.8125 117.1875 C 382.8125 121.507812 386.3125 125 390.625 125 C 394.9375 125 398.4375 121.507812 398.4375 117.1875 Z M 429.6875 93.75 C 425.375 93.75 421.875 97.242188 421.875 101.5625 L 421.875 117.1875 C 421.875 121.507812 425.375 125 429.6875 125 C 434 125 437.5 121.507812 437.5 117.1875 L 437.5 101.5625 C 437.5 97.242188 434 93.75 429.6875 93.75 Z M 195.3125 93.75 C 191 93.75 187.5 97.242188 187.5 101.5625 L 187.5 117.1875 C 187.5 121.507812 191 125 195.3125 125 C 199.625 125 203.125 121.507812 203.125 117.1875 L 203.125 101.5625 C 203.125 97.242188 199.625 93.75 195.3125 93.75 Z M 234.375 93.75 C 230.0625 93.75 226.5625 97.242188 226.5625 101.5625 L 226.5625 117.1875 C 226.5625 121.507812 230.0625 125 234.375 125 C 238.6875 125 242.1875 121.507812 242.1875 117.1875 L 242.1875 101.5625 C 242.1875 97.242188 238.6875 93.75 234.375 93.75 Z M 325.835938 221.039062 C 325.359375 220.5625 324.78125 220.296875 324.226562 219.96875 C 305.671875 200.046875 279.304688 187.5 250 187.5 C 194 187.5 148.4375 233.0625 148.4375 289.0625 C 148.4375 318.367188 160.984375 344.734375 180.90625 363.289062 C 181.234375 363.84375 181.5 364.421875 181.976562 364.898438 C 182.742188 365.664062 183.625 366.234375 184.570312 366.617188 C 202.257812 381.570312 225.078125 390.625 250 390.625 C 306 390.625 351.5625 345.0625 351.5625 289.0625 C 351.5625 264.140625 342.507812 241.320312 327.554688 223.632812 C 327.171875 222.6875 326.601562 221.804688 325.835938 221.039062 Z M 164.0625 289.0625 C 164.0625 241.679688 202.617188 203.125 250 203.125 C 272.867188 203.125 293.632812 212.164062 309.046875 226.78125 L 187.71875 348.109375 C 173.101562 332.695312 164.0625 311.929688 164.0625 289.0625 Z M 250 375 C 231.109375 375 213.6875 368.804688 199.484375 358.4375 L 319.375 238.546875 C 329.742188 252.75 335.9375 270.171875 335.9375 289.0625 C 335.9375 336.445312 297.382812 375 250 375 Z M 250 375 "/>
<path style=" stroke:none;fill-rule:nonzero;fill:rgb(100%,97.254902%,97.254902%);fill-opacity:1;" d="M 105.484375 195.28125 L 115.15625 212.96875 L 132.84375 222.640625 L 115.15625 232.3125 L 105.484375 250 L 95.8125 232.3125 L 78.125 222.640625 L 95.8125 212.96875 Z M 409.523438 196.578125 L 416.203125 208.796875 L 428.421875 215.476562 L 416.203125 222.15625 L 409.523438 234.375 L 402.84375 222.15625 L 390.625 215.476562 L 402.84375 208.796875 Z M 380.0625 364.875 L 384.617188 373.195312 L 392.9375 377.75 L 384.617188 382.304688 L 380.0625 390.625 L 375.507812 382.304688 L 367.1875 377.75 L 375.507812 373.195312 Z M 380.0625 364.875 "/>
</g>
</svg>
