<svg height="512pt" viewBox="0 -31 512 512" width="512pt" xmlns="http://www.w3.org/2000/svg"><path d="m469.132812 234.660156c4.722657-5.585937 4.730469-13.765625.011719-19.359375-52.84375-62.65625-131.078125-125.300781-213.144531-125.300781-81.820312 0-160.195312 62.78125-213.132812 125.339844-4.722657 5.585937-4.730469 13.765625-.011719 19.359375 52.84375 62.65625 131.078125 125.300781 213.144531 125.300781 81.820312 0 160.195312-62.78125 213.132812-125.339844zm-213.132812 95.339844c-77.25 0-148.0625-67.144531-181.808594-104.957031 33.855469-37.835938 104.847656-105.042969 181.808594-105.042969 77.25 0 148.0625 67.144531 181.808594 104.957031-33.855469 37.835938-104.847656 105.042969-181.808594 105.042969zm0 0"/><path d="m256 150c-41.355469 0-75 33.644531-75 75s33.644531 75 75 75 75-33.644531 75-75-33.644531-75-75-75zm0 120c-24.8125 0-45-20.1875-45-45s20.1875-45 45-45 45 20.1875 45 45-20.1875 45-45 45zm0 0"/><path d="m266.601562 214.394531c-5.855468-5.855469-15.355468-5.855469-21.210937 0-5.859375 5.859375-5.859375 15.355469 0 21.214844 5.855469 5.855469 15.355469 5.855469 21.210937 0 5.859376-5.859375 5.859376-15.355469 0-21.214844zm0 0"/><path d="m15 120c8.285156 0 15-6.714844 15-15v-75h75c8.285156 0 15-6.714844 15-15s-6.714844-15-15-15h-90c-8.285156 0-15 6.714844-15 15v90c0 8.285156 6.714844 15 15 15zm0 0"/><path d="m497 0h-90c-8.285156 0-15 6.714844-15 15s6.714844 15 15 15h75v75c0 8.285156 6.714844 15 15 15s15-6.714844 15-15v-90c0-8.285156-6.714844-15-15-15zm0 0"/><path d="m497 330c-8.285156 0-15 6.714844-15 15v75h-75c-8.285156 0-15 6.714844-15 15s6.714844 15 15 15h90c8.285156 0 15-6.714844 15-15v-90c0-8.285156-6.714844-15-15-15zm0 0"/><path d="m105 420h-75v-75c0-8.285156-6.714844-15-15-15s-15 6.714844-15 15v90c0 8.285156 6.714844 15 15 15h90c8.285156 0 15-6.714844 15-15s-6.714844-15-15-15zm0 0"/></svg>