<?xml version="1.0" encoding="iso-8859-1"?>
<!-- Generator: Adobe Illustrator 21.0.0, SVG Export Plug-In . SVG Version: 6.00 Build 0)  -->
<svg xmlns="http://www.w3.org/2000/svg" xmlns:xlink="http://www.w3.org/1999/xlink" version="1.1" id="Capa_1" x="0px" y="0px" viewBox="0 0 512 512" style="enable-background:new 0 0 512 512;" xml:space="preserve" width="512" height="512">
<g>
	<g>
		<path d="M323.88,123.536h43.279c11.521,0,20.894-9.373,20.894-20.895V59.358c0-11.521-9.373-20.895-20.894-20.895H323.88    c-11.521,0-20.894,9.373-20.894,20.895v43.283C302.986,114.163,312.359,123.536,323.88,123.536z M317.985,59.358    c0-3.25,2.644-5.895,5.895-5.895h43.279c3.251,0,5.895,2.645,5.895,5.895v43.283c0,3.25-2.644,5.895-5.895,5.895H323.88    c-3.251,0-5.895-2.645-5.895-5.895V59.358z"/>
		<path d="M144.84,85.072h43.28c11.521,0,20.894-9.373,20.894-20.895v-4.303c0-4.143-3.358-7.5-7.499-7.5s-7.5,3.357-7.5,7.5v4.303    c0,3.25-2.644,5.895-5.895,5.895h-43.28c-3.25,0-5.895-2.645-5.895-5.895V20.895c0-3.25,2.644-5.895,5.895-5.895h43.28    c3.25,0,5.895,2.645,5.895,5.895v6.98c0,4.143,3.358,7.5,7.5,7.5s7.499-3.357,7.499-7.5v-6.98C209.014,9.373,199.641,0,188.12,0    h-43.28c-11.521,0-20.894,9.373-20.894,20.895v43.283C123.947,75.699,133.32,85.072,144.84,85.072z"/>
		<path d="M417.824,181.949c-1.647-4.659-5.907-7.669-10.851-7.669h-87.311c-4.142,0-7.5,3.357-7.5,7.5s3.357,7.5,7.5,7.5h77.42    l-83.648,67.618c-10.063,8.136-15.835,20.215-15.835,33.142v10.734h-83.2V290.04c0-12.927-5.772-25.007-15.835-33.142    l-83.647-67.618h173.08c4.142,0,7.5-3.357,7.5-7.5s-3.357-7.5-7.5-7.5h-13.599V140.5c0-11.524-9.375-20.9-20.899-20.9h-43.277    c-11.524,0-20.899,9.376-20.899,20.9v33.78h-84.298c-4.944,0-9.203,3.01-10.85,7.669c-1.646,4.654-0.228,9.668,3.613,12.772    l91.347,73.843c6.523,5.273,10.265,13.101,10.265,21.476v125.627c0,4.143,3.358,7.5,7.499,7.5c4.142,0,7.5-3.357,7.5-7.5v-15.893    h83.2V497h-83.2v-49.333c0-4.143-3.358-7.5-7.5-7.5c-4.142,0-7.499,3.357-7.499,7.5V504.5c0,4.143,3.358,7.5,7.499,7.5h98.199    c4.142,0,7.5-3.357,7.5-7.5V290.04c0-8.375,3.742-16.202,10.265-21.476l91.348-73.843    C418.052,191.617,419.47,186.604,417.824,181.949z M204.323,140.5c0-3.254,2.647-5.9,5.9-5.9H253.5c3.253,0,5.9,2.646,5.9,5.9    v33.78h-55.077V140.5z M214.4,384.774v-69h83.2v69H214.4z"/>
	</g>
</g>















</svg>
