<?xml version="1.0" encoding="UTF-8"?>
<svg xmlns="http://www.w3.org/2000/svg" xmlns:xlink="http://www.w3.org/1999/xlink" width="500px" height="500px" viewBox="0 0 500 500" version="1.1">
<g id="surface35625">
<path style=" stroke:none;fill-rule:nonzero;fill:rgb(92.941176%,47.058824%,60%);fill-opacity:1;" d="M 332.335938 412.78125 C 394.6875 358.5625 433.023438 281.859375 438.96875 199.445312 L 444.34375 109.28125 C 444.882812 100.695312 438.375 93.289062 429.789062 92.71875 L 401.515625 90.835938 C 353.742188 87.648438 308.085938 69.90625 270.695312 40 L 259.765625 31.257812 C 254.0625 26.695312 245.953125 26.695312 240.242188 31.257812 L 229.3125 40 C 191.921875 69.914062 146.265625 87.65625 98.492188 90.835938 L 70.21875 92.71875 C 61.632812 93.289062 55.125 100.695312 55.664062 109.28125 L 61.039062 199.445312 C 66.984375 281.859375 105.320312 358.5625 167.671875 412.78125 L 239.75 475.460938 C 245.632812 480.570312 254.375 480.570312 260.257812 475.460938 Z M 332.335938 412.78125 "/>
<path style=" stroke:none;fill-rule:nonzero;fill:rgb(87.843137%,40.392157%,56.078431%);fill-opacity:1;" d="M 444.375 109.296875 L 438.984375 199.453125 C 433.046875 281.875 394.6875 358.59375 332.34375 412.8125 L 260.234375 475.46875 C 257.34375 477.96875 253.671875 479.296875 250 479.296875 L 250 27.8125 C 253.4375 27.8125 256.875 28.984375 259.765625 31.25 L 270.703125 40 C 308.046875 69.921875 353.75 87.65625 401.484375 90.859375 L 429.765625 92.734375 C 438.359375 93.28125 444.84375 100.703125 444.375 109.296875 Z M 444.375 109.296875 "/>
<path style=" stroke:none;fill-rule:nonzero;fill:rgb(92.941176%,47.058824%,60%);fill-opacity:1;" d="M 250 125 C 198.222656 125 156.25 166.972656 156.25 218.75 C 156.25 270.527344 198.222656 312.5 250 312.5 C 301.777344 312.5 343.75 270.527344 343.75 218.75 C 343.75 166.972656 301.777344 125 250 125 Z M 250 125 "/>
<path style=" stroke:none;fill-rule:nonzero;fill:rgb(55.294118%,42.352941%,62.352941%);fill-opacity:1;" d="M 171.875 339.359375 C 167.554688 339.359375 164.0625 342.851562 164.0625 347.171875 L 164.0625 362.796875 C 164.0625 367.117188 167.554688 370.609375 171.875 370.609375 C 176.195312 370.609375 179.6875 367.117188 179.6875 362.796875 L 179.6875 347.171875 C 179.6875 342.859375 176.195312 339.359375 171.875 339.359375 Z M 210.9375 339.359375 C 206.617188 339.359375 203.125 342.851562 203.125 347.171875 L 203.125 362.796875 C 203.125 367.117188 206.617188 370.609375 210.9375 370.609375 C 215.257812 370.609375 218.75 367.117188 218.75 362.796875 L 218.75 347.171875 C 218.75 342.859375 215.257812 339.359375 210.9375 339.359375 Z M 250 339.359375 C 245.679688 339.359375 242.1875 342.851562 242.1875 347.171875 L 242.1875 362.796875 C 242.1875 367.117188 245.679688 370.609375 250 370.609375 C 254.320312 370.609375 257.8125 367.117188 257.8125 362.796875 L 257.8125 347.171875 C 257.8125 342.859375 254.320312 339.359375 250 339.359375 Z M 289.0625 339.359375 C 284.742188 339.359375 281.25 342.851562 281.25 347.171875 L 281.25 362.796875 C 281.25 367.117188 284.742188 370.609375 289.0625 370.609375 C 293.382812 370.609375 296.875 367.117188 296.875 362.796875 L 296.875 347.171875 C 296.875 342.859375 293.382812 339.359375 289.0625 339.359375 Z M 328.125 339.359375 C 323.804688 339.359375 320.3125 342.851562 320.3125 347.171875 L 320.3125 362.796875 C 320.3125 367.117188 323.804688 370.609375 328.125 370.609375 C 332.445312 370.609375 335.9375 367.117188 335.9375 362.796875 L 335.9375 347.171875 C 335.9375 342.859375 332.445312 339.359375 328.125 339.359375 Z M 328.125 339.359375 "/>
<path style=" stroke:none;fill-rule:nonzero;fill:rgb(55.294118%,42.352941%,62.352941%);fill-opacity:1;" d="M 430.304688 80.539062 L 402.03125 78.65625 C 355.617188 75.5625 311.890625 58.570312 275.570312 29.507812 L 264.640625 20.773438 C 256.015625 13.859375 243.976562 13.867188 235.359375 20.765625 L 224.429688 29.507812 C 188.117188 58.570312 144.390625 75.5625 97.96875 78.65625 L 69.695312 80.539062 C 56.851562 81.390625 47.0625 92.539062 47.859375 105.367188 L 53.242188 195.625 C 59.375 280.679688 98.195312 358.335938 162.539062 414.296875 L 234.617188 476.96875 C 239.007812 480.773438 244.5 482.679688 250 482.679688 C 255.5 482.679688 260.992188 480.773438 265.382812 476.96875 L 337.46875 414.289062 C 401.8125 358.335938 440.625 280.671875 446.765625 195.523438 L 452.140625 105.382812 C 452.945312 92.539062 443.148438 81.390625 430.304688 80.539062 Z M 431.171875 194.5 C 427.0625 251.429688 407.515625 304.835938 375 350.046875 L 375 347.179688 C 375 342.859375 371.507812 339.367188 367.1875 339.367188 C 362.867188 339.367188 359.375 342.859375 359.375 347.179688 L 359.375 362.804688 C 359.375 364.710938 360.132812 366.382812 361.265625 367.742188 C 350.929688 380.085938 339.59375 391.734375 327.210938 402.5 L 255.125 465.179688 C 252.210938 467.726562 247.789062 467.726562 244.875 465.179688 L 172.796875 402.507812 C 160.414062 391.742188 149.078125 380.085938 138.734375 367.742188 C 139.867188 366.382812 140.625 364.703125 140.625 362.796875 L 140.625 347.171875 C 140.625 342.851562 137.132812 339.359375 132.8125 339.359375 C 128.492188 339.359375 125 342.851562 125 347.171875 L 125 350.039062 C 92.484375 304.828125 72.929688 251.445312 68.835938 194.585938 L 63.453125 104.40625 C 63.1875 100.125 66.453125 96.414062 70.734375 96.125 L 99.007812 94.242188 C 148.625 90.929688 195.367188 72.757812 234.195312 41.703125 L 245.125 32.953125 C 246.5625 31.8125 248.273438 31.234375 250 31.234375 C 251.71875 31.234375 253.4375 31.8125 254.875 32.96875 L 265.804688 41.710938 C 304.632812 72.765625 351.375 90.9375 400.992188 94.25 L 429.265625 96.132812 C 433.546875 96.414062 436.8125 100.132812 436.546875 104.429688 Z M 431.171875 194.5 "/>
<path style=" stroke:none;fill-rule:nonzero;fill:rgb(55.294118%,42.352941%,62.352941%);fill-opacity:1;" d="M 250 69.210938 L 270.078125 83.265625 C 291.75 98.4375 315.609375 109.898438 341 117.3125 C 345.140625 118.523438 349.476562 116.148438 350.6875 112 C 351.898438 107.851562 349.523438 103.523438 345.375 102.3125 C 321.632812 95.375 299.3125 84.65625 279.03125 70.460938 L 258.960938 56.414062 C 253.601562 52.648438 246.398438 52.65625 241.039062 56.40625 L 220.96875 70.46875 C 187.078125 94.179688 147.359375 108.171875 106.101562 110.921875 L 101.03125 111.265625 C 96.726562 111.5625 93.46875 115.289062 93.757812 119.585938 C 94.039062 123.710938 97.476562 126.875 101.546875 126.875 C 101.71875 126.875 101.90625 126.867188 102.078125 126.859375 L 107.140625 126.515625 C 151.25 123.570312 193.695312 108.617188 229.921875 83.273438 Z M 398.507812 111.226562 L 393.890625 110.914062 C 387.953125 110.515625 381.953125 109.882812 376.054688 109.023438 C 371.765625 108.328125 367.8125 111.351562 367.195312 115.625 C 366.570312 119.890625 369.523438 123.859375 373.796875 124.484375 C 380.101562 125.40625 386.507812 126.085938 392.84375 126.515625 L 397.453125 126.828125 C 397.625 126.835938 397.8125 126.84375 397.984375 126.84375 C 402.054688 126.84375 405.492188 123.6875 405.773438 119.554688 C 406.070312 115.25 402.820312 111.523438 398.507812 111.226562 Z M 398.507812 111.226562 "/>
<path style=" stroke:none;fill-rule:nonzero;fill:rgb(98.039216%,93.72549%,87.058824%);fill-opacity:1;" d="M 325.835938 150.726562 C 325.359375 150.25 324.773438 149.984375 324.21875 149.65625 C 305.664062 129.734375 279.304688 117.1875 250 117.1875 C 194 117.1875 148.4375 162.75 148.4375 218.75 C 148.4375 248.054688 160.984375 274.414062 180.90625 292.96875 C 181.234375 293.523438 181.5 294.109375 181.976562 294.585938 C 182.742188 295.351562 183.625 295.921875 184.570312 296.304688 C 202.257812 311.257812 225.078125 320.3125 250 320.3125 C 306 320.3125 351.5625 274.75 351.5625 218.75 C 351.5625 193.828125 342.507812 171.007812 327.554688 153.320312 C 327.171875 152.375 326.601562 151.492188 325.835938 150.726562 Z M 164.0625 218.75 C 164.0625 171.367188 202.617188 132.8125 250 132.8125 C 272.867188 132.8125 293.632812 141.851562 309.046875 156.46875 L 187.71875 277.796875 C 173.101562 262.382812 164.0625 241.617188 164.0625 218.75 Z M 250 304.6875 C 231.109375 304.6875 213.6875 298.492188 199.484375 288.125 L 319.375 168.234375 C 329.742188 182.4375 335.9375 199.859375 335.9375 218.75 C 335.9375 266.132812 297.382812 304.6875 250 304.6875 Z M 250 304.6875 "/>
</g>
</svg>
