<?xml version="1.0" encoding="iso-8859-1"?>
<!-- Generator: Adobe Illustrator 19.1.0, SVG Export Plug-In . SVG Version: 6.00 Build 0)  -->
<svg version="1.1" id="Capa_1" xmlns="http://www.w3.org/2000/svg" xmlns:xlink="http://www.w3.org/1999/xlink" x="0px" y="0px"
	 viewBox="0 0 459 459" style="enable-background:new 0 0 459 459;" xml:space="preserve">
<g>
	<path d="M273.18,0c50.86,0,92.24,41.38,92.24,92.24s-41.38,92.24-92.24,92.24h-18.79V348h30.69c4.14,0,7.5,3.36,7.5,7.5V386h27.8
		c4.14,0,7.5,3.36,7.5,7.5v46c0,4.14-3.36,7.5-7.5,7.5h-65.99v4.5c0,4.14-3.36,7.5-7.5,7.5h-34.78c-4.15,0-7.5-3.36-7.5-7.5V184.48
		h-18.79c-50.86,0-92.24-41.38-92.24-92.24S134.96,0,185.82,0H273.18z M350.42,92.24c0-42.59-34.65-77.24-77.24-77.24h-87.36
		c-42.59,0-77.24,34.65-77.24,77.24s34.65,77.24,77.24,77.24h87.36C315.77,169.48,350.42,134.83,350.42,92.24z M312.88,432v-31
		h-27.8c-4.14,0-7.5-3.36-7.5-7.5V363h-23.19v69H312.88z M239.39,444V184.48h-19.78V444H239.39z"/>
	<path style="fill:#F48C6C;" d="M273.18,15c42.59,0,77.24,34.65,77.24,77.24s-34.65,77.24-77.24,77.24h-87.36
		c-42.59,0-77.24-34.65-77.24-77.24S143.23,15,185.82,15H273.18z M321.74,92.24c0-26.77-21.79-48.56-48.56-48.56h-87.36
		c-26.78,0-48.56,21.79-48.56,48.56c0,26.78,21.78,48.56,48.56,48.56h87.36C299.95,140.8,321.74,119.02,321.74,92.24z"/>
	<path style="fill:#F48C6C;" d="M312.88,401v31h-58.49v-69h23.19v30.5c0,4.14,3.36,7.5,7.5,7.5H312.88z"/>
	<path d="M273.18,43.68c26.77,0,48.56,21.79,48.56,48.56c0,26.78-21.79,48.56-48.56,48.56h-87.36c-26.78,0-48.56-21.78-48.56-48.56
		c0-26.77,21.78-48.56,48.56-48.56H273.18z M306.74,92.24c0-18.5-15.06-33.56-33.56-33.56h-87.36c-18.51,0-33.56,15.06-33.56,33.56
		c0,18.51,15.05,33.56,33.56,33.56h87.36C291.68,125.8,306.74,110.75,306.74,92.24z"/>
	<rect x="219.61" y="184.48" style="fill:#F48C6C;" width="19.78" height="259.52"/>
</g>
<g>
</g>
<g>
</g>
<g>
</g>
<g>
</g>
<g>
</g>
<g>
</g>
<g>
</g>
<g>
</g>
<g>
</g>
<g>
</g>
<g>
</g>
<g>
</g>
<g>
</g>
<g>
</g>
<g>
</g>
</svg>
