<?xml version="1.0" encoding="iso-8859-1"?>
<!-- Generator: Adobe Illustrator 16.0.0, SVG Export Plug-In . SVG Version: 6.00 Build 0)  -->
<!DOCTYPE svg PUBLIC "-//W3C//DTD SVG 1.1//EN" "http://www.w3.org/Graphics/SVG/1.1/DTD/svg11.dtd">
<svg version="1.1" id="Capa_1" xmlns="http://www.w3.org/2000/svg" xmlns:xlink="http://www.w3.org/1999/xlink" x="0px" y="0px"
	 width="47.002px" height="47.002px" viewBox="0 0 47.002 47.002" style="enable-background:new 0 0 47.002 47.002;"
	 xml:space="preserve">
<g>
	<g>
		<path style="fill:#f1f1f1;" d="M33.603,17.388v-7.281C33.603,4.53,29.069,0,23.499,0c-5.57,0-10.103,4.53-10.103,10.106v7.281h-4.68V43.35h6.661
			c-0.027-0.229-0.041-0.463-0.041-0.699c0-2.719,1.824-5.034,4.631-6.106v-2.382c-1.662-0.303-2.896-1.828-2.928-3.734
			c-0.754-0.647-1.231-1.607-1.231-2.679c0-1.944,1.585-3.53,3.533-3.53h0.826c0.484-1.374,1.796-2.361,3.333-2.361
			c1.948,0,3.533,1.585,3.533,3.535v11.151c2.807,1.072,4.632,3.388,4.632,6.106c0,0.236-0.014,0.471-0.041,0.699h6.662V17.388
			H33.603z M28.543,17.388H18.452v-7.281c0-2.786,2.263-5.056,5.047-5.056c2.781,0,5.044,2.27,5.044,5.056V17.388z"/>
		<path style="fill:#f1f1f1;" d="M24.617,38.386c0.004-0.028,0.019-0.051,0.019-0.083v-12.91c0-0.631-0.509-1.137-1.135-1.137
			c-0.628,0-1.135,0.506-1.135,1.137v1.226h-3.025c-0.627,0-1.135,0.509-1.135,1.132c0,0.63,0.508,1.137,1.135,1.137h1.229
			c-0.628,0-1.134,0.656-1.134,1.469s0.506,1.463,1.134,1.463h1.794v6.486c0,0.031,0.016,0.055,0.017,0.082
			c-2.678,0.383-4.648,2.119-4.648,4.266c0,2.438,2.532,4.35,5.767,4.35c3.235,0,5.767-1.912,5.767-4.35
			C29.269,40.505,27.299,38.77,24.617,38.386z M23.501,44.729c-2.061,0-3.497-1.096-3.497-2.076c0-0.983,1.437-2.077,3.497-2.077
			c2.062,0,3.499,1.094,3.499,2.077C27,43.633,25.562,44.729,23.501,44.729z"/>
	</g>
</g>
<g>
</g>
<g>
</g>
<g>
</g>
<g>
</g>
<g>
</g>
<g>
</g>
<g>
</g>
<g>
</g>
<g>
</g>
<g>
</g>
<g>
</g>
<g>
</g>
<g>
</g>
<g>
</g>
<g>
</g>
</svg>
