<svg version="1.1" xmlns="http://www.w3.org/2000/svg" xmlns:xlink="http://www.w3.org/1999/xlink" width="438.122" height="438.122" style="" xml:space="preserve"><rect id="backgroundrect" width="100%" height="100%" x="0" y="0" fill="none" stroke="none"/>
















<g class="currentLayer" style=""><title>Layer 1</title><g id="svg_1" class="selected" fill="#b6b6b6" fill-opacity="1" stroke="#000000" stroke-opacity="1">
	<path d="M219.064,0C98.073,0,0.003,98.083,0.003,219.073c0,120.991,98.07,219.049,219.061,219.049s219.055-98.058,219.055-219.049   C438.119,98.083,340.055,0,219.064,0z M199.855,45.805c0-10.613,8.605-19.227,19.23-19.227c10.613,0,19.225,8.614,19.225,19.227   v166.498c0,10.607-8.611,19.219-19.225,19.219c-10.625,0-19.23-8.611-19.23-19.219V45.805z M219.064,399.584   c-95.14,0-172.536-77.391-172.536-172.549c0-81.016,56.223-149,131.658-167.435v33.009   c-57.613,17.549-99.662,71.154-99.662,134.426c0,77.492,63.053,140.531,140.533,140.531c77.498,0,140.524-63.051,140.524-140.531   c0-63.272-42.045-116.877-99.655-134.426V59.601C335.371,78.036,391.6,146.007,391.6,227.035   C391.6,322.193,314.198,399.584,219.064,399.584z" id="svg_2" fill="#b6b6b6" fill-opacity="1" stroke="#000000" stroke-opacity="1"/>
</g><g id="svg_3">
</g><g id="svg_4">
</g><g id="svg_5">
</g><g id="svg_6">
</g><g id="svg_7">
</g><g id="svg_8">
</g><g id="svg_9">
</g><g id="svg_10">
</g><g id="svg_11">
</g><g id="svg_12">
</g><g id="svg_13">
</g><g id="svg_14">
</g><g id="svg_15">
</g><g id="svg_16">
</g><g id="svg_17">
</g></g></svg>
