<svg id="Layer_3" enable-background="new 0 0 64 64" height="512" viewBox="0 0 64 64" width="512" xmlns="http://www.w3.org/2000/svg"><path d="m10 58h44v4h-44z" fill="#312b25"/><path d="m10 58h41v4h-41z" fill="#62574a"/><path d="m55.07 44c1.13-2.172 1.962-4.523 2.445-7h4.485v-10h-4.485c-.678-3.481-2.047-6.716-3.964-9.55l3.449-3.45-7-7-3.45 3.45c-2.834-1.918-6.069-3.286-9.55-3.965v-4.485h-10v4.485c-3.481.678-6.716 2.047-9.55 3.964l-3.45-3.449-7 7 3.45 3.45c-1.918 2.834-3.286 6.069-3.965 9.55h-4.485v10h4.485c.483 2.477 1.315 4.828 2.445 7h.07 46z" fill="#535353"/><path d="m15.999 44h32.003c2.51-3.343 3.998-7.498 3.998-12 0-11.046-8.954-20-20-20s-20 8.954-20 20c0 4.502 1.488 8.657 3.999 12z" fill="#fff"/><path d="m30 12v6h4v-6" fill="#535353"/><path d="m18 34h12v10h-12z" fill="#f4b23e"/><path d="m34 34h12v10h-12z" fill="#f4b23e"/><path d="m38 34v4h4v-4" fill="#7a591f"/><path d="m22 34v4h4v-4" fill="#7a591f"/><path d="m55 58h-46c-3.866 0-7-3.134-7-7 0-3.866 3.134-7 7-7h46c3.866 0 7 3.134 7 7 0 3.866-3.134 7-7 7z" fill="#c3ad94"/><circle cx="55" cy="51" fill="#312b25" r="3"/><ellipse cx="53.5" cy="51" fill="#62574a" rx="1.5" ry="2.584"/><circle cx="45" cy="51" fill="#312b25" r="3"/><ellipse cx="43.5" cy="51" fill="#62574a" rx="1.5" ry="2.584"/><circle cx="35" cy="51" fill="#312b25" r="3"/><ellipse cx="33.5" cy="51" fill="#62574a" rx="1.5" ry="2.584"/><circle cx="25" cy="51" fill="#312b25" r="3"/><ellipse cx="23.5" cy="51" fill="#62574a" rx="1.5" ry="2.584"/><circle cx="15" cy="51" fill="#312b25" r="3"/><ellipse cx="13.5" cy="51" fill="#62574a" rx="1.5" ry="2.584"/><path d="m8.044 44.462c-1.064-2.043-1.86-4.213-2.37-6.462h-3.674c-.552 0-1-.448-1-1v-10c0-.552.448-1 1-1h3.674c.679-2.999 1.851-5.824 3.494-8.418l-2.875-2.875c-.391-.391-.391-1.023 0-1.414l7-7c.391-.391 1.023-.391 1.414 0l2.875 2.875c2.595-1.643 5.42-2.815 8.418-3.494v-3.674c0-.552.448-1 1-1h10c.552 0 1 .448 1 1v3.674c2.998.679 5.823 1.852 8.418 3.494l2.875-2.875c.391-.391 1.023-.391 1.414 0l7 7c.391.391.391 1.023 0 1.414l-2.875 2.875c1.643 2.595 2.815 5.42 3.494 8.418h3.674c.552 0 1 .448 1 1v10c0 .552-.448 1-1 1h-3.674c-.51 2.248-1.305 4.418-2.369 6.462l-1.774-.924c1.103-2.117 1.893-4.381 2.351-6.729.091-.47.502-.809.981-.809h3.485v-8h-3.485c-.479 0-.89-.339-.981-.809-.644-3.306-1.926-6.395-3.811-9.181-.269-.397-.218-.929.121-1.268l2.742-2.742-5.586-5.586-2.743 2.743c-.338.339-.869.39-1.268.121-2.786-1.885-5.875-3.167-9.181-3.811-.469-.092-.808-.503-.808-.982v-3.485h-8v3.485c0 .479-.339.89-.809.981-3.306.644-6.395 1.926-9.181 3.811-.399.269-.93.217-1.268-.121l-2.742-2.742-5.586 5.586 2.743 2.743c.339.339.39.871.121 1.268-1.884 2.785-3.166 5.874-3.811 9.181-.092.469-.503.808-.982.808h-3.485v8h3.485c.479 0 .89.339.981.809.458 2.349 1.249 4.613 2.351 6.729z"/><path d="m48.801 44.601-1.6-1.201c2.486-3.309 3.799-7.251 3.799-11.4 0-10.477-8.523-19-19-19s-19 8.523-19 19c0 4.149 1.313 8.091 3.798 11.399l-1.6 1.201c-2.746-3.657-4.198-8.014-4.198-12.6 0-11.58 9.42-21 21-21s21 9.42 21 21c0 4.586-1.452 8.943-4.199 12.601z"/><path d="m55 59h-46c-4.411 0-8-3.589-8-8s3.589-8 8-8h46c4.411 0 8 3.589 8 8s-3.589 8-8 8zm-46-14c-3.309 0-6 2.691-6 6s2.691 6 6 6h46c3.309 0 6-2.691 6-6s-2.691-6-6-6z"/><path d="m15 55c-2.206 0-4-1.794-4-4s1.794-4 4-4 4 1.794 4 4-1.794 4-4 4zm0-6c-1.103 0-2 .897-2 2s.897 2 2 2 2-.897 2-2-.897-2-2-2z"/><path d="m25 55c-2.206 0-4-1.794-4-4s1.794-4 4-4 4 1.794 4 4-1.794 4-4 4zm0-6c-1.103 0-2 .897-2 2s.897 2 2 2 2-.897 2-2-.897-2-2-2z"/><path d="m35 55c-2.206 0-4-1.794-4-4s1.794-4 4-4 4 1.794 4 4-1.794 4-4 4zm0-6c-1.103 0-2 .897-2 2s.897 2 2 2 2-.897 2-2-.897-2-2-2z"/><path d="m45 55c-2.206 0-4-1.794-4-4s1.794-4 4-4 4 1.794 4 4-1.794 4-4 4zm0-6c-1.103 0-2 .897-2 2s.897 2 2 2 2-.897 2-2-.897-2-2-2z"/><path d="m55 55c-2.206 0-4-1.794-4-4s1.794-4 4-4 4 1.794 4 4-1.794 4-4 4zm0-6c-1.103 0-2 .897-2 2s.897 2 2 2 2-.897 2-2-.897-2-2-2z"/><path d="m2.675 47h12.325v2h-12.325z"/><path d="m2.675 53h12.325v2h-12.325z"/><path d="m54 63h-44c-.552 0-1-.448-1-1v-4h2v3h42v-3h2v4c0 .552-.448 1-1 1z"/><path d="m47 44h-2v-9h-10v9h-2v-10c0-.552.448-1 1-1h12c.552 0 1 .448 1 1z"/><path d="m31 44h-2v-9h-10v9h-2v-10c0-.552.448-1 1-1h12c.552 0 1 .448 1 1z"/><path d="m26 39h-4c-.552 0-1-.448-1-1v-4h2v3h2v-3h2v4c0 .552-.448 1-1 1z"/><path d="m42 39h-4c-.552 0-1-.448-1-1v-4h2v3h2v-3h2v4c0 .552-.448 1-1 1z"/><path d="m34 19h-4c-.552 0-1-.448-1-1v-6h2v5h2v-5h2v6c0 .552-.448 1-1 1z"/><path d="m31 18h2v4h-2z"/><path d="m34.707 28.707-1.414-1.414 1.707-1.707v-1.172l-1.414-1.414h-3.172l-1.414 1.414v1.172l1.707 1.707-1.414 1.414-2-2c-.188-.187-.293-.442-.293-.707v-2c0-.265.105-.52.293-.707l2-2c.187-.188.442-.293.707-.293h4c.265 0 .52.105.707.293l2 2c.188.187.293.442.293.707v2c0 .265-.105.52-.293.707z"/></svg>