<?xml version="1.0" encoding="iso-8859-1"?>
<!-- Generator: Adobe Illustrator 16.0.0, SVG Export Plug-In . SVG Version: 6.00 Build 0)  -->
<!DOCTYPE svg PUBLIC "-//W3C//DTD SVG 1.1//EN" "http://www.w3.org/Graphics/SVG/1.1/DTD/svg11.dtd">
<svg version="1.1" id="Capa_1" xmlns="http://www.w3.org/2000/svg" xmlns:xlink="http://www.w3.org/1999/xlink" x="0px" y="0px"
	 width="35.358px" height="35.359px" viewBox="0 0 35.358 35.359" style="enable-background:new 0 0 35.358 35.359;"
	 xml:space="preserve">
<g>
	<g>
		<g>
			<path d="M25.184,8.896v5.728h5.615C30.573,11.6,28.192,9.178,25.184,8.896z"/>
		</g>
		<g>
			<path d="M24.126,9.109c-3.383,0.064-6.109,2.821-6.109,6.221c0,3.438,2.788,6.229,6.228,6.229c3.358,0,6.09-2.662,6.214-5.992
				h-6.332L24.126,9.109L24.126,9.109z"/>
		</g>
		<g>
			<path d="M14.276,14.691c-0.018-0.004-0.031,0.006-0.048,0.01c-0.077-3.226-1.606-4.354-3.536-4.402
				c-1.986,0.013-3.765,1.396-3.648,4.41c-0.017-0.002-0.037-0.012-0.056-0.008c-0.25,0.043-0.398,0.414-0.327,0.832
				c0.072,0.418,0.333,0.72,0.586,0.676c0.009,0,0.016-0.01,0.024-0.014c0.542,1.957,1.945,3.42,3.367,3.449
				c1.295-0.059,2.886-1.5,3.414-3.447c0.243,0.014,0.485-0.272,0.556-0.674C14.677,15.106,14.528,14.734,14.276,14.691z"/>
		</g>
		<g>
			<path d="M35.358,26.312V5.525H0v20.787h12.165v1.834h-1.152v1.688h1.152h11.027h1.151v-1.688h-1.151v-1.834H35.358z
				 M18.659,24.812c-0.198-2.949-2.364-4.211-5.355-4.611l-1.8,3.533l-0.289-2.297l0.446-0.365h-1.079l-0.986,0.002l0.445,0.365
				L9.759,23.74l-1.807-3.535c-2.986,0.41-5.146,1.672-5.344,4.607H1.499V7.025h32.356v17.787H18.659z"/>
		</g>
	</g>
</g>
<g>
</g>
<g>
</g>
<g>
</g>
<g>
</g>
<g>
</g>
<g>
</g>
<g>
</g>
<g>
</g>
<g>
</g>
<g>
</g>
<g>
</g>
<g>
</g>
<g>
</g>
<g>
</g>
<g>
</g>
</svg>
