<?xml version="1.0" encoding="iso-8859-1"?>
<!-- Generator: Adobe Illustrator 19.0.0, SVG Export Plug-In . SVG Version: 6.00 Build 0)  -->
<svg version="1.1" id="Capa_1" xmlns="http://www.w3.org/2000/svg" xmlns:xlink="http://www.w3.org/1999/xlink" x="0px" y="0px"
	 viewBox="0 0 512 512" style="enable-background:new 0 0 512 512;" xml:space="preserve">
<polygon style="fill:#E1E4FB;" points="375.353,355.909 0,314.434 0,116.695 435.708,96.017 437.13,125.983 378.647,326.091 "/>
<polygon style="fill:#C5C9F7;" points="435.708,96.017 256,104.546 256,342.721 375.353,355.909 378.647,326.091 437.13,125.983 "/>
<polygon style="fill:#FFD32A;" points="392,416 70,416 70,386 362,386 362,339.076 362.485,337.214 441.063,36 512,36 512,66 
	464.241,66 392,342.924 "/>
<path style="fill:#063E8B;" d="M332,476c-16.542,0-30-13.458-30-30s13.458-30,30-30s30,13.458,30,30S348.542,476,332,476z M332,446
	c0,0.013,0.001,0.019,0.001,0.019L332,446z"/>
<path style="fill:#0A4EAF;" d="M130,476c-16.542,0-30-13.458-30-30s13.458-30,30-30s30,13.458,30,30S146.542,476,130,476z M130,446
	c0,0.013,0.001,0.019,0.001,0.019L130,446z"/>
<polygon style="fill:#FFAB15;" points="441.063,36 362.485,337.214 362,339.076 362,386 256,386 256,416 392,416 392,342.924 
	464.241,66 512,66 512,36 "/>
<g>
</g>
<g>
</g>
<g>
</g>
<g>
</g>
<g>
</g>
<g>
</g>
<g>
</g>
<g>
</g>
<g>
</g>
<g>
</g>
<g>
</g>
<g>
</g>
<g>
</g>
<g>
</g>
<g>
</g>
</svg>
