<svg height="467pt" viewBox="-12 0 467 467.76" width="467pt" xmlns="http://www.w3.org/2000/svg"><path d="m423.78125 405.96875h-355.410156v-296.816406l121.703125-73.015625v-32.144531h63.890625c2.816406 0 5.582031.742187 8.023437 2.160156l169.816407 98.375c4.933593 2.863281 7.976562 8.136718 7.976562 13.839844v271.59375c0 8.839843-7.167969 16.007812-16 16.007812zm0 0" fill="#52b8d9"/><path d="m423.773438 409.96875h-355.394532c-2.207031 0-4-1.792969-4-4v-296.816406c0-1.410156.738282-2.703125 1.945313-3.433594l119.75-71.855469v-29.863281c0-2.207031 1.792969-4 4-4h63.890625c3.519531 0 6.992187.929688 10.03125 2.695312l169.816406 98.375c6.152344 3.5625 9.96875 10.195313 9.96875 17.304688v271.59375c-.007812 11.03125-8.976562 20-20.007812 20zm-351.394532-8h351.402344c6.613281 0 12-5.382812 12-12v-271.59375c0-4.261719-2.289062-8.238281-5.976562-10.382812l-169.824219-98.375c-1.824219-1.058594-3.90625-1.617188-6.015625-1.617188h-59.890625v28.136719c0 1.40625-.734375 2.703125-1.941407 3.429687l-119.761718 71.859375v290.542969zm0 0" fill="#63312d"/><path d="m359.78125 405.96875h-339.410156c-8.839844 0-16-7.160156-16-16v-271.601562c0-5.703126 3.039062-10.984376 7.976562-13.839844l169.703125-98.375c4.960938-2.878906 11.089844-2.878906 16.050781 0l169.703126 98.375c4.933593 2.863281 7.976562 8.136718 7.976562 13.839844v271.59375c0 8.839843-7.167969 16.007812-16 16.007812zm0 0" fill="#82d9ff"/><path d="m20.371094 399.136719v-271.601563c0-5.703125 3.039062-10.984375 7.976562-13.839844l169.703125-98.375c4.753907-2.753906 10.546875-2.792968 15.394531-.273437l-15.34375-8.894531c-4.960937-2.878906-11.089843-2.878906-16.050781 0l-169.703125 98.375c-4.9375 2.863281-7.976562 8.136718-7.976562 13.839844v271.59375c0 8.839843 7.160156 16 16 16h1.585937c-.984375-2.074219-1.585937-4.367188-1.585937-6.824219zm0 0" fill="#caf4ff"/><path d="m359.773438 409.96875h-339.394532c-11.023437 0-20-8.96875-20-20v-271.59375c0-7.109375 3.824219-13.742188 9.96875-17.304688l169.695313-98.375c6.183593-3.574218 13.882812-3.574218 20.058593 0l169.703126 98.375c6.144531 3.5625 9.96875 10.195313 9.96875 17.304688v271.59375c0 11.03125-8.96875 20-20 20zm-169.699219-401.96875c-2.078125 0-4.160157.535156-6.015625 1.617188l-169.703125 98.375c-3.6875 2.144531-5.984375 6.121093-5.984375 10.382812v271.59375c0 6.617188 5.386718 12 12 12h339.402344c6.613281 0 12-5.382812 12-12v-271.59375c0-4.261719-2.289063-8.238281-5.976563-10.382812l-169.703125-98.375c-1.859375-1.082032-3.9375-1.617188-6.019531-1.617188zm0 0" fill="#63312d"/><path d="m64.085938 173.742188h257.367187v232.226562h-257.367187zm0 0" fill="#eee"/><path d="m321.453125 409.96875h-257.367187c-2.210938 0-4-1.792969-4-4v-232.226562c0-2.207032 1.789062-4 4-4h257.367187c2.207031 0 4 1.792968 4 4v232.21875c0 2.214843-1.792969 4.007812-4 4.007812zm-253.367187-8h249.367187v-224.226562h-249.367187zm0 0" fill="#63312d"/><path d="m372.820312 105.152344h64v8h-64zm0 0" fill="#63312d"/><path d="m64.085938 173.742188h257.367187v34.226562h-257.367187zm0 0" fill="#f9a287"/><path d="m64.085938 207.96875h257.367187v34.222656h-257.367187zm0 0" fill="#f9a287"/><path d="m64.085938 242.191406h257.367187v34.222656h-257.367187zm0 0" fill="#f9a287"/><g fill="#63312d"><path d="m321.453125 211.96875h-257.367187c-2.210938 0-4-1.792969-4-4v-34.214844c0-2.210937 1.789062-4 4-4h257.367187c2.207031 0 4 1.789063 4 4v34.214844c0 2.207031-1.792969 4-4 4zm-253.367187-8h249.367187v-26.214844h-249.367187zm0 0"/><path d="m321.453125 246.183594h-257.367187c-2.210938 0-4-1.792969-4-4v-34.214844c0-2.207031 1.789062-4 4-4h257.367187c2.207031 0 4 1.792969 4 4v34.214844c0 2.207031-1.792969 4-4 4zm-253.367187-8h249.367187v-26.214844h-249.367187zm0 0"/><path d="m321.453125 280.40625h-257.367187c-2.210938 0-4-1.789062-4-4v-34.222656c0-2.207032 1.789062-4 4-4h257.367187c2.207031 0 4 1.792968 4 4v34.222656c0 2.21875-1.792969 4-4 4zm-253.367187-8h249.367187v-26.222656h-249.367187zm0 0"/></g><path d="m201.050781 364.769531h109.304688v99h-109.304688zm0 0" fill="#f9dd9d"/><path d="m310.347656 467.761719h-109.296875c-2.207031 0-4-1.792969-4-4v-99c0-2.210938 1.792969-4 4-4h109.304688c2.207031 0 4 1.789062 4 4v99c-.007813 2.214843-1.792969 4-4.007813 4zm-105.296875-8h101.304688v-91h-101.304688zm0 0" fill="#63312d"/><path d="m171.445312 364.769531h109.300782v99h-109.300782zm0 0" fill="#f9dd9d"/><path d="m187.445312 380.769531h93.292969v-16h-109.292969v99h16zm0 0" fill="#ffeecf"/><path d="m280.738281 467.761719h-109.300781c-2.210938 0-4-1.792969-4-4v-99c0-2.210938 1.789062-4 4-4h109.300781c2.210938 0 4 1.789062 4 4v99c0 2.214843-1.789062 4-4 4zm-105.300781-8h101.300781v-91h-101.300781zm0 0" fill="#63312d"/><path d="m213.90625 364.769531h24.371094v33h-24.371094zm0 0" fill="#f8f3f3"/><path d="m238.277344 401.761719h-24.371094c-2.207031 0-4-1.792969-4-4v-33c0-2.210938 1.792969-4 4-4h24.371094c2.207031 0 4 1.789062 4 4v33c0 2.214843-1.792969 4-4 4zm-20.371094-8h16.371094v-25h-16.371094zm0 0" fill="#63312d"/><path d="m310.347656 364.769531h109.304688v99h-109.304688zm0 0" fill="#f9dd9d"/><path d="m419.652344 467.761719h-109.304688c-2.207031 0-4-1.792969-4-4v-99c0-2.210938 1.792969-4 4-4h109.304688c2.207031 0 4 1.789062 4 4v99c0 2.214843-1.792969 4-4 4zm-105.304688-8h101.304688v-91h-101.304688zm0 0" fill="#63312d"/><path d="m280.738281 364.769531h109.304688v99h-109.304688zm0 0" fill="#f9dd9d"/><path d="m295.546875 379.566406h94.496094v-14.796875h-109.304688v99h14.808594zm0 0" fill="#ffeecf"/><path d="m390.042969 467.761719h-109.304688c-2.207031 0-4-1.792969-4-4v-99c0-2.210938 1.792969-4 4-4h109.304688c2.210937 0 4 1.789062 4 4v99c0 2.214843-1.789063 4-4 4zm-105.304688-8h101.304688v-91h-101.304688zm0 0" fill="#63312d"/><path d="m323.210938 364.769531h24.367187v33h-24.367187zm0 0" fill="#f8f3f3"/><path d="m347.578125 401.761719h-24.367187c-2.207032 0-4-1.792969-4-4v-33c0-2.210938 1.792968-4 4-4h24.367187c2.210937 0 4 1.789062 4 4v33c0 2.214843-1.789063 4-4 4zm-20.367187-8h16.367187v-25h-16.367187zm0 0" fill="#63312d"/><path d="m283.363281 265.769531h109.304688v99h-109.304688zm0 0" fill="#f9dd9d"/><path d="m392.667969 368.761719h-109.304688c-2.207031 0-4-1.792969-4-4v-99c0-2.210938 1.792969-4 4-4h109.304688c2.207031 0 4 1.789062 4 4v99c0 2.214843-1.792969 4-4 4zm-105.304688-8h101.304688v-91h-101.304688zm0 0" fill="#63312d"/><path d="m253.757812 265.769531h109.300782v99h-109.300782zm0 0" fill="#f9dd9d"/><path d="m268.554688 280.566406h94.503906v-14.796875h-109.300782v99h14.796876zm0 0" fill="#ffeecf"/><path d="m363.058594 368.761719h-109.300782c-2.210937 0-4-1.792969-4-4v-99c0-2.210938 1.789063-4 4-4h109.300782c2.210937 0 4 1.789062 4 4v99c0 2.214843-1.789063 4-4 4zm-105.300782-8h101.300782v-91h-101.300782zm0 0" fill="#63312d"/><path d="m296.226562 265.769531h24.371094v33h-24.371094zm0 0" fill="#f8f3f3"/><path d="m320.589844 302.761719h-24.363282c-2.207031 0-4-1.792969-4-4v-33c0-2.210938 1.792969-4 4-4h24.363282c2.207031 0 4 1.789062 4 4v33c0 2.214843-1.792969 4-4 4zm-20.363282-8h16.363282v-25h-16.363282zm0 0" fill="#63312d"/></svg>